<svg id="Слой_1" xmlns="http://www.w3.org/2000/svg" xmlns:xlink="http://www.w3.org/1999/xlink" viewBox="0 0 3118.5 871.5"><style>.st0{display:none}.st1,.st2{display:inline}.st2{clip-path:url(#SVGID_2_)}.st2,.st3{fill:#fff}.st4{fill:none}</style><g class="st0"><defs><path id="SVGID_1_" d="M0-27.6h3118.1v850.4H0V-27.6zm-141.7-141.7V964.5h3401.6V-169.3H-141.7z"/></defs><clipPath id="SVGID_2_" class="st1"><use xlink:href="#SVGID_1_" overflow="visible"/></clipPath><path class="st2" d="M2997.7 1146.1L4562.8-419.1h-200.4L2797.2 1146.1zm-461.4 0L4101.4-419.1H3901L2335.9 1146.1zm-461.4 0L3640.1-419.1h-200.5L1874.5 1146.1zm-461.4 0L3178.7-419.1h-200.5L1413.1 1146.1zm-461.4 0L2717.3-419.1h-200.5L951.7 1146.1zm-461.4 0L2255.9-419.1h-200.5L490.3 1146.1zm-461.3 0L1794.5-419.1h-200.4L28.9 1146.1zm-461.4 0L1333.1-419.1h-200.4L-432.5 1146.1zm-461.4 0L871.7-419.1H671.3L-893.9 1146.1zm-461.4 0L410.3-419.1H209.9l-1565.2 1565.2z"/></g><path d="M1379.1 428.3c-11.6 56.2-23.1 112.2-34.6 168.1 23.3-.4 46.6-.8 70-1.1-11.8-55.9-23.5-111.6-35.4-167zm-604.2 68.2c-.4-22.3-4.7-40-12.8-52.8-8.2-12.8-18.8-18.1-31.9-16-5.8.9-13.6 3.8-23.4 8.6.9 48.1 1.7 96.1 2.6 144.2 1.9-.2 3.5-.3 4.9-.3 1.4 0 2.5-.1 3.4-.2 19.3-1.7 33.8-10.2 43.4-25.7 9.6-15.7 14.2-35 13.8-57.8zM2170 560.6c19.4 1.2 34.1-5.8 44.2-20.7 10.1-14.9 15.3-34.3 15.7-58.5.4-23.6-3.3-43.1-11.1-58.8-7.7-15.7-18.2-24.4-31.3-25.8-5.8-.7-13.7.3-23.7 2.8-.7 53.4-1.5 106.8-2.2 160.2 1.9.1 3.5.3 4.9.4 1.4.2 2.6.3 3.5.4zM1198.7 572c-9.8-8-21.8-11.7-36.2-11.1-6.2.3-11.5.7-15.9 1.2-4.4.6-7.9 1.4-10.6 2.5l1.8 163.9c11.6 5.2 23.1 7.8 34.3 7.8 18-.1 31.7-8.3 41.1-24.6 9.3-16.3 13.9-36.5 13.7-60.5-.1-15.8-2.4-30.9-6.8-45.4-4.5-14.5-11.6-25.7-21.4-33.8zm-50.3-32c4.8.5 10 .6 15.7.3 14.6-.6 25.6-4.2 32.9-10.8 7.3-6.6 12.9-16.4 16.6-29.6 3.8-13.1 5.6-27.4 5.5-42.8-.2-23.8-5.3-43.8-15.2-59.9-9.9-16.1-24.2-23.4-42.9-22-10 .8-19.1 3.7-27.1 8.6.6 51.2 1.1 102.4 1.7 153.6 3.8 1.3 8.1 2.2 12.8 2.6zm695.1 170.9c9.6-16.4 14.5-36.7 14.7-60.9.1-15.9-1.9-31.3-6.1-46.1-4.2-14.8-11.1-26.6-20.8-35.3-9.7-8.7-21.7-13.3-36-13.6-6.2-.1-11.5 0-15.9.3s-8 1-10.7 1.9c-.3 56.6-.6 113.3-.8 169.9 11.5 5.5 22.9 8.3 34.2 8.4 18 .1 31.8-8.1 41.4-24.6zm-74.7-181.8c3.7 1.5 7.9 2.7 12.7 3.5 4.8.8 10 1.3 15.7 1.4 14.6.3 25.7-2.6 33.1-8.7 7.4-6.2 13.1-15.7 17.1-28.7 4-13 6.1-27.3 6.2-42.8.2-24-4.6-44.7-14.2-62.2-4.1-7.5-9.1-13.4-14.9-17.8h-54.9c-.2 51.7-.5 103.5-.8 155.3zm-872.9 39.3c.9 61.1 8.8 107.7 23.4 140.6 11.3 25 25.8 37.6 43.6 37.5 19-.1 34.6-14.2 46.6-42.9 12-28.6 17.7-73.8 16.9-135.3-.9-66.6-8.4-115.9-22.6-147.1-11.4-24.8-26.8-36-46.2-33.7-18.2 2.1-32.7 16.5-43.3 42.8-13.1 32.7-19.3 78.6-18.4 138.1zm1904.9 183.8c19 .2 34.9-9.5 47.6-28.2 12.7-18.8 19.2-48 19.8-88.6.6-44-5.7-78-18.9-103.1-10.6-19.9-25.4-32.6-44.5-37.2-17.9-4.3-32.5 1.6-43.7 18.2-13.9 20.6-21.3 54.5-22.1 100.5-.8 47.1 5.6 84 19.3 109.4 10.5 19.4 24.7 28.8 42.5 29zM199.6 587.4c-.1-14.8-4.2-26-12.1-33.2-7.9-7.2-18.2-9-31.1-5.5-5.7 1.5-13.4 4.6-23 9.3l.5 91.1c1.9-.3 3.5-.5 4.9-.7 1.4-.1 2.5-.3 3.4-.4 19.1-2.8 33.5-9.6 43.2-20.8 9.6-11.2 14.4-24.6 14.2-39.8zM1519 .3h-.4.4zm102.9.3c-1 0-1.9 0-2.9-.1.9.1 1.9.1 2.9.1zm-21.5-.3h-.4.4zM1500 .6c-1 0-1.9 0-2.9.1.9-.1 1.9-.1 2.9-.1zm-17.6.4c-2.9.1-5.7.2-8.6.2 2.9 0 5.7-.1 8.6-.2zm-399.3 372.1c-2.5.2-5 .5-7.5.7h14.3c-2-.7-4.3-1-6.8-.7zm562-371.9c-2.8-.1-5.7-.2-8.5-.2 2.8.1 5.7.1 8.5.2zM3119 373.8h-.5.5zm-1349.4-3.9v3.9h54.9c-7.7-5.9-16.9-9.1-27.6-9.5-10.1-.5-19.2 1.4-27.3 5.6zm-206.3 172.3c1.9 0 3.6 0 5 .1s2.6.2 3.5.2c19.4 0 34.1-8.6 44-25.8 9.9-17.2 14.9-39.1 14.9-65.8 0-26.1-3.9-47.3-11.9-63.7-2.6-5.3-5.5-9.8-8.6-13.4h-46.9c-.1 56.1-.1 112.2 0 168.4zm23.6-179.7c-5.8 0-13.7 1.9-23.7 5.9v5.4h46.9c-6.6-7.5-14.3-11.3-23.2-11.3zM3000.4 651c10.3 1.5 19.1-1.6 26.6-9 7.5-7.3 11.2-17.5 11.3-30.8 0-9.2-1.7-18.1-5.2-26.9-3.5-8.8-8.5-16.1-14.9-21.8-6.4-5.7-13.8-9.8-22-12-5-1.3-11.4-2-19.3-1.9-.3 31.8-.5 63.7-.8 95.5 5.2 1.9 9.9 3.4 13.9 4.5 4.1 1.2 7.6 2 10.4 2.4z"/><path class="st3" d="M251.3 743.7c-6.9-5.2-15.3-15.9-25-31.4-14.2-22.5-28.3-43.9-42.3-64.3 16.9-6.7 29.2-16.1 37.2-28.3 7.9-12.2 11.8-26.1 11.6-41.2-.2-14.1-3.8-25.6-11-34-7.1-8.4-15.7-13-25.8-14-10.1-1-25.7 1.6-46.8 7.6-24.1 6.9-48.3 13.9-72.3 21.2v5.5c2.5-.7 5-1.5 7.5-2.2 7.5-2.2 13.2-1.6 17 1.9 2.7 2.4 4.1 10.3 4.2 23.6.1 45.4.3 90.9.4 136.3 0 12-1 19.7-3.1 23-3.7 5.9-9.8 8.8-18.3 8.9-2.5 0-5.1.1-7.6.1v5.5l86.8-.6v-6.2c-2.6 0-5.3.1-7.9.1-7.6.1-13.3-2.2-17.1-6.9-2.8-3.3-4.2-11.8-4.3-25.6l-.3-63.6c1.6-.1 3.1-.2 4.6-.4 1.5-.1 2.9-.3 4.1-.5 3.2-.4 7.3-1.1 12.3-2 22.9 32 46 66.9 69.3 104.7l54.1-.3c0-2.3-.1-4.7-.1-7-11.2-1.3-20.2-4.6-27.2-9.9zm-109.1-95.8c-.9.1-2 .3-3.4.4-1.4.2-3 .4-4.9.7l-.5-91.1c9.7-4.6 17.3-7.8 23-9.3 12.8-3.4 23.2-1.7 31.1 5.5 7.9 7.2 11.9 18.4 12.1 33.2.2 15.2-4.6 28.6-14.2 39.7-9.6 11.4-24 18.1-43.2 20.9zm288 79c-4.7 6.9-9.6 11.5-14.7 13.9-5.1 2.4-13.4 3.6-24.9 3.8l-34.4.6c-5.6.1-9.4-.6-11.4-2.1s-3.4-3.5-4.3-6.1c-.8-2.6-1.4-9.9-1.5-21.9-.5-29.9-.9-59.7-1.4-89.6 14.8-1.8 29.5-3.6 44.3-5.4 8.4-1 14.7-.3 18.8 2 4.1 2.4 7.1 5.9 9 10.7 1.5 3.8 3 12.7 4.6 26.7 1.8-.2 3.7-.3 5.5-.5L418 557.9c-1.8.3-3.7.6-5.5.9-.3 16.6-3 28.5-8 35.7-3.8 5.5-11.4 8.9-22.9 10.4-14.8 1.9-29.5 3.9-44.3 5.9-.6-35.8-1.1-71.6-1.7-107.4 18.3-4.3 36.7-8.4 55.1-12.5 10-2.2 17-2.7 20.9-1.4 5 1.9 8.8 5.5 11.4 10.7 2.6 5.2 5.1 15.3 7.5 30.4 1.9-.3 3.9-.7 5.8-1-1.1-21.4-2.2-42.7-3.4-64-51.7 11.6-103.2 24-154.5 37.3 0 2.3.1 4.7.1 7 2.4-.6 4.7-1.2 7.1-1.8 8.3-2.1 14.2-.9 17.8 3.4 2.6 3.3 4.1 13.3 4.3 30.1.9 57.3 1.7 114.7 2.6 172 .2 12.9-.3 21.4-1.3 25.6-1.1 4.2-3.2 7.3-6.4 9.5-4.2 3-8.7 4.6-13.5 4.6-2.4 0-4.8.1-7.2.1 0 2.3.1 4.7.1 7 52.1-.3 104.1-.6 156.2-.8 5.4-24.6 10.8-49.5 16.1-74.8-2 .1-4 .2-6 .4-6.1 18.8-12.1 32.6-18.1 41.7zm38.7-269.1c-.4 23.8-.7 47.5-1.1 71.2l5.7-.9c.4-13.8 2.4-25 5.9-33.8 3.5-8.8 7.8-15.1 12.9-19 3.9-2.9 10.6-5.3 20-7.1 8.1-1.6 16.2-3.1 24.2-4.7A30873683130049200000 30873683130049200000 0 0 0 520.3 751c-2.4 0-4.8 0-7.2.1.1 2.8.1 5.6.2 8.5 28.6-.1 57.3-.3 85.9-.4-.1-3-.1-5.9-.2-8.9-2.3 0-4.7 0-7 .1-7.9.1-13.8-3.2-17.7-9.8-2.8-4.9-4.4-17.2-4.7-36.9-1.5-81.8-3-163.7-4.6-245.5 9.5-1.8 19-3.5 28.5-5.2 8.3-1.5 15.1-.5 20.3 3.1 5.2 3.6 9.4 9.9 12.7 18.9 2 5.6 3.7 15.2 5 28.8 1.9-.3 3.8-.5 5.7-.8-1.2-26-2.5-52.1-3.7-78-54.9 9.9-109.8 20.9-164.6 32.8zm360.4 275.4c-7-7.8-15.5-23.6-25.5-47.1-14.5-34.1-29.1-67.6-43.6-100.4 16.9-8 29.3-20.4 37.2-37.5 7.9-17 11.6-36.8 11.2-59.1-.4-20.8-4.2-38.4-11.6-52.4-7.4-14-16.3-23-26.6-26.9-10.3-4-26.3-4.2-47.8-.6-24.6 4.1-49.2 8.4-73.8 12.8.1 3.1.1 6.1.2 9.2 2.5-.4 5.1-.9 7.6-1.3 7.7-1.3 13.5 1.3 17.5 8.1 2.9 4.7 4.5 17.9 4.9 39.4 1.3 73.6 2.7 147.3 4 220.9.4 19.5-.5 31.9-2.5 37.1-3.5 9.5-9.6 14.2-18.1 14.3-2.5 0-5.1 0-7.6.1.1 3.1.1 6.1.2 9.2l86.8-.3c-.1-3.2-.1-6.4-.2-9.6-2.6 0-5.3 0-7.9.1-7.6.1-13.3-3.7-17.2-11.1-2.9-5.3-4.5-18.8-4.9-40.6-.6-33.6-1.2-67.2-1.8-100.7h4.6c1.5 0 2.9-.1 4.2-.2 3.2-.3 7.3-.8 12.4-1.5 23.8 52.8 47.7 107.3 71.5 163.5 18-.1 36.1-.1 54.1-.2-.1-3.4-.1-6.7-.2-10.1-11.1-2.3-20.1-7.3-27.1-15.1zM717.8 579.9c-.9.1-2 .1-3.4.2-1.4 0-3 .1-4.9.3-.9-48.1-1.7-96.1-2.6-144.2 9.8-4.8 17.6-7.7 23.4-8.6 13.1-2 23.7 3.3 31.9 16 8.2 12.8 12.5 30.4 12.8 52.8.4 22.8-4.2 42.2-13.8 57.8-9.6 15.6-24.1 24.1-43.4 25.7zm174.6-155.6c-21.4 40.2-31.6 89-30.7 147.7.9 57.4 11.2 103.6 30.8 139.8 19.6 36.2 43.3 54.8 71.2 54.8 27.6 0 50.8-19.2 69.8-58.7 18.9-39.4 28.1-89.4 27.3-149.1-.7-58-11-105.8-30.9-142.4-11.2-20.6-23.4-34.7-36.6-42.7h-55.5c-17.2 9.1-32.3 26-45.4 50.6zm65.3-36.8c19.4-2.3 34.9 8.9 46.2 33.7 14.2 31.2 21.7 80.5 22.6 147.1.8 61.5-4.8 106.7-16.9 135.3-12 28.6-27.6 42.7-46.6 42.9-17.8.1-32.4-12.5-43.6-37.5-14.7-32.9-22.5-79.5-23.4-140.6-.9-59.6 5.2-105.4 18.5-138.1 10.5-26.2 25-40.6 43.2-42.8z"/><path class="st3" d="M960.3 366.6c-7.9 1-15.4 3.4-22.5 7.1h55.5c-10.4-6.1-21.4-8.5-33-7.1zm140.5 17.7c3 6.2 4.6 21.6 4.9 46.2 1 85.5 2 171.1 2.9 256.6.3 22.3-.7 36.8-2.9 43.7-3.6 10.6-9.6 15.9-18.1 15.9h-7.6c0 3.6.1 7.2.1 10.8 31.9-.1 63.8-.1 95.7-.2 22.8 0 39.8-4.3 50.8-12.8s19.7-22.1 25.9-40.7c6.2-18.6 9.3-38.1 9.1-58.4-.2-26.7-5.2-49.2-15.1-67.4-7.1-13-17.8-22.3-31.9-27.8 12-8.2 21.1-20.5 27.2-36.9 6.1-16.4 9-34.8 8.9-55.3-.2-23.9-4.3-44.8-12.4-62.7-3.9-8.6-8.6-15.8-14.1-21.7H1090c4.4 1.6 8 5.1 10.8 10.7zM1220 605.8c4.4 14.5 6.7 29.6 6.8 45.4.2 24-4.4 44.2-13.7 60.5-9.3 16.3-23 24.5-41.1 24.6-11.3.1-22.7-2.5-34.3-7.8l-1.8-163.9c2.7-1.1 6.2-1.9 10.6-2.5 4.4-.6 9.7-1 15.9-1.2 14.3-.6 26.4 3.1 36.2 11.1 9.9 8.1 17 19.3 21.4 33.8zm-58.9-230.5c18.7-1.4 33 5.9 42.9 22 9.9 16.1 14.9 36.1 15.2 59.9.1 15.4-1.7 29.7-5.5 42.8-3.8 13.1-9.3 23-16.6 29.6-7.3 6.6-18.3 10.1-32.9 10.8-5.7.3-10.9.1-15.7-.3-4.8-.5-9-1.3-12.7-2.5-.6-51.2-1.1-102.4-1.7-153.6 8-5 17-7.9 27-8.7zm-85.4-1.5h-.2.2z"/><path class="st3" d="M1083.1 373.1c2.5-.2 4.8 0 6.8.7H1224c-6-6.4-12.9-11.1-20.8-14.3-10-4.1-23.2-5.5-39.7-4.2-29.5 2.3-58.9 4.9-88.3 7.7 0 3.6.1 7.2.1 10.7h.2c2.7-.2 5.2-.4 7.6-.6zm214.8 361.1c-2.5 4.9-7.9 8.8-16.4 11.9 0 3.7.1 7.5.1 11.2 21.3 0 42.6-.1 63.8-.1 0-3.8 0-7.5-.1-11.3-9.8-1.4-16.2-4.5-19.1-9.2-3-4.7-4.5-10.3-4.5-16.5 0-7.9 1.6-19.8 4.9-35.9 4.5-21.7 8.9-43.5 13.4-65.3 26.3-.4 52.5-.8 78.8-1 4.2 19.9 8.4 39.8 12.5 59.7 4.1 19.4 6.1 33.6 6.1 42.6 0 6.8-1.4 12.5-4.2 17.2-2.8 4.7-8.3 7.5-16.3 8.3v11.3h80v-11.4c-8.3-1-14.7-5.7-19.4-14-4.7-8.3-9.9-26.4-15.6-54.2-21.1-101.7-42.3-203-63.6-303.7H1376c-20.6 100.9-41.1 201.4-61.5 301.2-6.1 29.7-11.6 49.4-16.6 59.2zm81.2-305.9c11.8 55.5 23.6 111.2 35.4 167-23.3.3-46.6.6-70 1.1 11.5-55.9 23-112 34.6-168.1zm10.4-95.5c-1.8.1-3.5.1-5.3.2-2.8 13.6-5.6 27.2-8.3 40.7h22.3c-2.9-13.6-5.8-27.2-8.7-40.9zm145.2 350.3c0 23.8-1 38.9-3.1 45.3-3.7 11.5-9.8 17.3-18.4 17.3h-7.6v11.4h86.9v-11.4h-7.9c-7.6 0-13.3-4.5-17.1-13.6-2.8-6.4-4.2-22.7-4.2-49V561.6c1.6.2 3.2.4 4.7.5 1.5.1 2.9.2 4.2.2 3.2 0 7.4-.2 12.5-.6 23 65.2 45.8 130.4 68.6 195.4h54.1v-11.4c-11.1-2.5-20-8.2-26.9-17.2-6.9-9-15-27.3-24.6-54.8-13.9-40-27.8-80-41.8-120 17.1-7.7 29.8-21 38-39.8 8.2-18.8 12.4-41 12.4-66.6.1-24-3.5-44.7-10.7-62.2-1.7-4.1-3.4-7.8-5.3-11.3H1610c3.1 3.6 6 8 8.6 13.4 8 16.4 11.9 37.6 11.9 63.7 0 26.7-5 48.6-14.9 65.8-9.9 17.2-24.6 25.8-44 25.8-.9 0-2.1-.1-3.5-.2s-3.1-.1-5-.1V373.8h-30.7c1.3 8.7 1.9 21.8 1.9 39.4.2 89.9.3 179.9.4 269.9zm28.5-314.8c10-3.9 17.9-5.9 23.7-5.9 8.9 0 16.6 3.8 23.2 11.3h38.5c-6.1-11.4-13-19.7-21-24.8-10.3-6.6-26.4-9.9-48.1-10-24.9 0-49.8.1-74.7.5v11.4c2.6 0 5.1-.1 7.7-.1 7.8-.1 13.6 4.4 17.5 13.4.9 2.1 1.7 5.3 2.3 9.6h30.7c.2-1.8.2-3.6.2-5.4zm177.2 46.9c-.4 89.4-.8 178.9-1.1 268.4-.1 23.3-1.3 38.5-3.6 45.6-3.7 11-9.8 16.5-18.3 16.5h-7.6v11.4c31.9 0 63.8 0 95.7.1 22.8 0 39.8-4.3 51-12.8 11.2-8.5 20-22.1 26.6-40.6 6.5-18.5 9.9-37.9 10-58.2.2-26.7-4.5-49.4-14-68.1-6.9-13.5-17.4-23.4-31.5-29.9 12.2-7.5 21.4-19.3 27.8-35.3 6.3-16 9.6-34.2 9.8-54.7.2-23.9-3.6-45.3-11.4-64.1-3.1-7.4-6.7-13.9-10.9-19.7h-38.3c5.8 4.4 10.8 10.4 14.9 17.8 9.6 17.4 14.4 38.1 14.2 62.2-.1 15.6-2.2 29.8-6.2 42.8-4 13-9.7 22.6-17.1 28.7-7.4 6.2-18.4 9.1-33.1 8.7-5.7-.1-10.9-.6-15.7-1.4-4.8-.8-9-2-12.7-3.5.3-51.8.5-103.6.8-155.4h-31.4c1.5 8.7 2.2 22.6 2.1 41.5zm28.3 142c2.7-1 6.3-1.6 10.7-1.9 4.4-.3 9.7-.4 15.9-.3 14.3.3 26.3 4.9 36 13.6s16.6 20.5 20.8 35.3c4.2 14.8 6.2 30.2 6.1 46.1-.2 24.2-5.1 44.5-14.7 60.9s-23.4 24.6-41.5 24.6c-11.3 0-22.7-2.8-34.2-8.4l.9-169.9zm.9-187.3c8.1-4.2 17.1-6.1 27.2-5.7 10.7.4 19.9 3.6 27.6 9.5h38.3c-6.5-8.9-14.3-15.8-23.4-20.7-9.9-5.4-23.2-8.4-39.7-9.2-29.5-1.3-59-2.3-88.5-3.1v11.4c2.6.1 5.1.1 7.7.2 7.8.2 13.6 4.9 17.5 14 .8 1.8 1.4 4.3 2 7.4h31.4c-.1-1.2-.1-2.5-.1-3.8zm177.6 53l-2.4 263c-.2 19.7-.9 32.7-2.1 39.1-1.2 6.4-3.4 11.1-6.6 14.3-4.3 4.6-8.9 6.8-13.7 6.8h-7.2c0 3.7-.1 7.4-.1 11.1l156.2.3c6.2-32.9 12.5-65.7 18.7-98.4-2-.1-4-.1-6-.2-6.8 24-13.3 42-19.7 54-4.9 9.1-10 15.2-15.2 18.2-5.2 3.1-13.6 4.6-25 4.5-11.5-.1-22.9-.1-34.4-.2-5.6 0-9.4-1.2-11.3-3.5-2-2.3-3.3-5.4-4.1-9.2-.8-3.9-1.1-14.7-.9-32.5.4-44.3.9-88.5 1.3-132.8 14.9.6 29.8 1.2 44.7 1.9 8.5.4 14.8 2.6 18.8 6.7 4.1 4.1 6.9 9.6 8.7 16.5 1.3 5.5 2.6 18 3.8 37.3 1.8.1 3.7.1 5.5.2.5-45.9 1.1-91.9 1.6-137.8-1.9-.1-3.7-.2-5.6-.4-.9 22.6-4 38.2-9.3 46.9-4 6.6-11.8 9.7-23.4 9.1-14.9-.7-29.8-1.4-44.8-2.1.5-53.1 1.1-106.1 1.6-159.2 18.7 1.4 37.4 2.8 56 4.4 10.1.9 17.2 2.9 21.2 6.2 5 4.5 8.7 10.8 11.2 18.8s4.6 22.5 6.5 43.4c2 .1 3.9.3 5.9.4-.4-25.3-.7-50.7-1.1-76h-133.2c.2.5.4.9.7 1.4 2.8 6.2 4 22.1 3.7 47.8z"/><path class="st3" d="M2076.1 363.3c-52.5-5.1-105-9.4-157.5-12.8 0 3.7-.1 7.4-.1 11.1 2.4.2 4.8.3 7.2.5 7.9.5 13.7 4.5 17.3 11.8h133.2c0-3.6 0-7.1-.1-10.6zm37.5 14.4c7.7.8 13.5 5.6 17.3 14.4 2.7 6.2 3.9 21.5 3.6 46l-3.3 250.9c-.3 22.1-1.5 36.2-3.7 42.1-3.8 10.7-10 16-18.6 16h-7.6c0 3.6-.1 7.1-.1 10.7 29 .1 57.9.1 86.9.2.1-3.5.1-6.9.2-10.4h-7.9c-7.6 0-13.2-4.2-16.9-12.6-2.7-5.9-3.9-21-3.6-45.2.5-37.3 1-74.6 1.6-111.9 1.6.3 3.1.5 4.6.7 1.5.2 2.9.3 4.2.4 3.2.2 7.3.2 12.4.1 22.1 61 44.1 120.8 66.1 179.2 18 .1 36.1.1 54.1.2.1-3.3.1-6.7.2-10-11-2.2-19.9-7.4-26.7-15.5-6.8-8.1-14.7-24.5-23.9-49.4-13.4-36.2-26.8-72.8-40.3-110 17.2-6 30-17.2 38.4-33.5 8.4-16.3 12.8-35.8 13.2-58.7.3-21.5-3-40.3-9.9-56.7-6.9-16.4-15.5-28.2-25.6-35.3-10.2-7.1-26.1-12.1-47.7-14.6-2-.2-3.9-.5-5.9-.7H2106v3.2c2.5-.1 5.1.1 7.6.4zm50.2 21.8c10-2.5 17.9-3.5 23.7-2.8 13.1 1.5 23.6 10.2 31.3 25.8 7.7 15.7 11.4 35.2 11.1 58.8-.4 24.1-5.6 43.5-15.7 58.5-10.1 14.9-24.8 21.9-44.2 20.7-.9-.1-2.1-.2-3.4-.4-1.4-.2-3.1-.3-4.9-.4.6-53.3 1.4-106.8 2.1-160.2zm-57.7-33.2c0 2.5-.1 5-.1 7.5h68.5c-22.8-2.7-45.6-5.2-68.4-7.5zm224 383.7c1.5-2.7 3.5-4 6-4 2.6 0 8.7 2.9 18.3 8.5 9.6 5.6 16 8.8 19 9.7 5.2 1.6 10.7 2.4 16.6 2.4 18.7 0 34.2-9.7 46.5-28.5 12.2-18.8 18.6-41 19.1-67.1.2-13.7-1.4-26.9-4.9-39.7-3.5-12.8-8.6-24.1-15.4-34-6.8-9.9-19.5-24.3-38.1-43.9-22.9-23.9-37.3-43.2-43.2-57.2-4.1-9.5-6.1-19.8-5.9-30.8.2-14.4 3.9-26.8 10.8-37.1 7-10.3 15.7-14.6 26-13 9.2 1.4 18 6.9 26.4 16.3 8.4 9.4 14.8 21.3 19.2 35.7 4.4 14.4 7.3 33.1 8.7 56.4 1.8.2 3.7.4 5.5.6.7-39.9 1.4-79.8 2.2-119.7-1.8-.3-3.7-.6-5.5-1-1.1 7.8-2.6 13-4.2 15.3-1.7 2.4-3.8 3.4-6.4 2.9-2.3-.4-6.2-3.1-11.7-8.4-11.9-11.1-23.2-17.6-34-19.3-17.3-2.8-31.7 4.3-43.2 21.5-11.5 17.2-17.5 39.1-17.9 65.3-.2 15.1 1.4 29.1 5 42 3.6 12.9 9 24.8 16.1 35.7 7.2 10.9 19.3 25.7 36.3 44 17.1 18.3 27.5 29.9 31.3 35.3 5.6 7.9 9.8 16.3 12.3 25.2 2.6 8.9 3.8 17.6 3.6 26.1-.3 15.4-4.1 28.6-11.6 39.9-7.4 11.2-17.4 16.9-29.8 16.8-10.8-.1-20.6-4.4-29.5-13-8.9-8.6-15.4-19.4-19.6-32.5-4.2-13-7.3-32.6-9.5-58.9-1.8-.1-3.7-.2-5.5-.3l-2.1 125h5.5c.9-8 2.1-13.6 3.6-16.2zm232.5.3c-2.4 0-4.9 0-7.3-.1-4.8 0-9.3-2-13.5-5.9-3.1-2.9-5.2-6.5-6.1-10.5-1.2-5.4-1.6-16.4-1.3-33.1.6-33.5 1.2-67 1.9-100.4 31.4 2.9 62.7 6 94 9.2l-1.8 94.9c-.3 18.7-1.8 30.4-4.4 35.3-3.9 7.5-10 11.2-18.3 11.1-2.4 0-4.8 0-7.2-.1-.1 2.9-.1 5.8-.2 8.7 28.9.1 57.8.3 86.7.4 0-2.7.1-5.5.1-8.2-2.4 0-4.8-.1-7.2-.1-4.8-.1-9.3-1.9-13.7-5.5-3-2.7-5-6-5.9-9.8-1.2-5-1.7-15.2-1.4-30.7l3.6-197.2c.3-15 1-24.9 2.3-29.5 1.2-4.6 3.4-7.9 6.7-9.6 4.3-2.6 8.9-3.3 13.6-2.3 2.4.5 4.8 1 7.1 1.5 0-2.7.1-5.5.1-8.2-28.7-6.3-57.4-12.4-86.2-18.2-.1 2.9-.1 5.8-.2 8.7 2.4.5 4.8.9 7.1 1.4 4.8.9 9.2 3.7 13.4 8.2 3.1 3.4 5.1 7.1 6.1 11.1 1.2 5.3 1.6 15.9 1.4 31.9-.5 29.7-1.1 59.4-1.6 89.1-31.3-3.5-62.6-6.9-94-10.2.6-31.4 1.2-62.9 1.8-94.4.3-16.2 1.1-26.9 2.4-31.9 1.3-5 3.5-8.6 6.6-10.6 4.3-2.9 8.9-3.9 13.7-3 2.4.5 4.9.9 7.3 1.4.1-3 .1-5.9.2-8.9-28.9-5.6-57.7-11-86.7-16.1-.1 3.1-.1 6.2-.2 9.3l7.2 1.2c4.8.8 9.3 3.6 13.6 8.4 3 3.5 5 7.4 5.9 11.7 1.2 5.7 1.6 17 1.3 34.2-1.3 72-2.7 144.1-4 216.1-.4 20.1-1.8 32.7-4.3 38-3.9 8-10.1 12-18.5 12-2.4 0-4.8 0-7.2-.1-.1 3.1-.1 6.2-.2 9.3 28.9.1 57.9.2 86.8.4.4-3 .5-5.9.5-8.9zm238.3 16.3c27.6 0 51.3-13.6 71.1-38.6 19.7-25 29.8-55.3 30.3-93.1.5-36.7-8.7-68.9-27.4-98.5-18.7-29.6-41-48.7-67-55.3-26.2-6.6-48.9 0-68.3 21.3-22.3 24.4-33.9 61.4-34.7 108.4-.8 46 8 84.4 26.4 113.3 18.5 29 41.7 42.5 69.6 42.5zm-62-152.7c.8-46 8.2-79.9 22.1-100.5 11.2-16.6 25.7-22.5 43.7-18.2 19.1 4.5 33.9 17.2 44.5 37.2 13.2 25.1 19.5 59.1 18.9 103.1-.6 40.6-7.1 69.8-19.8 88.6-12.7 18.7-28.5 28.4-47.6 28.2-17.8-.2-32-9.6-42.5-29-13.6-25.4-20.1-62.3-19.3-109.4zm265.5 141.6c-2.6 0-5.2-.1-7.8-.1-7.7-.1-13.4-2.6-17.1-7.6-2.8-3.5-4.1-12.6-4-27l.6-66.9c6.4 2.4 12.4 4.4 18.1 5.9 5.6 1.5 10.9 2.6 15.7 3.2 19.8 2.6 35.1-.9 45.9-9.8 10.8-8.9 16.2-21.3 16.2-37.8 0-12.2-3.5-23.5-10.6-34.3-7-10.8-15.7-19.8-25.9-26.6-10.2-6.8-24.2-13-42-18-24.3-6.9-48.6-13.6-73-20.1 0 2.2-.1 4.5-.1 6.7 2.5.7 5 1.3 7.5 2 7.6 2 13.2 6.1 17 12.2 2.6 4.3 3.8 13.9 3.7 28.8l-1.5 153.3c-.1 13.5-1.2 22.1-3.2 25.6-3.7 6.5-9.9 9.7-18.5 9.6-2.5 0-5.1-.1-7.6-.1 0 2.2-.1 4.5-.1 6.7 28.9.2 57.9.3 86.8.5-.1-2.2-.1-4.2-.1-6.2zM2977 548.6c7.9-.1 14.3.6 19.3 1.9 8.2 2.2 15.5 6.2 22 12 6.4 5.7 11.4 13 14.9 21.8s5.2 17.7 5.2 26.9c0 13.4-3.8 23.5-11.3 30.8-7.5 7.3-16.4 10.4-26.6 9-2.9-.4-6.3-1.2-10.4-2.3-4-1.1-8.7-2.6-13.9-4.5.2-31.9.5-63.7.8-95.6zM1636.6 1l-14.7-.3 14.7.3zm15.9.5c-2.5-.1-4.9-.2-7.4-.2 2.5 0 4.9.1 7.4.2zM1600 .3zm-126.2.9c-2.4.1-4.9.1-7.3.2 2.5 0 4.9-.1 7.3-.2z"/><path class="st4" d="M251.3 743.7c-6.9-5.2-15.3-15.9-25-31.4-14.2-22.5-28.3-43.9-42.3-64.3 16.9-6.7 29.2-16.1 37.2-28.3 7.9-12.2 11.8-26.1 11.6-41.2-.2-14.1-3.8-25.6-11-34-7.1-8.4-15.7-13-25.8-14-10.1-1-25.7 1.6-46.8 7.6-24.1 6.9-48.3 13.9-72.3 21.2v5.5c2.5-.7 5-1.5 7.5-2.2 7.5-2.2 13.2-1.6 17 1.9 2.7 2.4 4.1 10.3 4.2 23.6.1 45.4.3 90.9.4 136.3 0 12-1 19.7-3.1 23-3.7 5.9-9.8 8.8-18.3 8.9-2.5 0-5.1.1-7.6.1v5.5l86.8-.6v-6.2c-2.6 0-5.3.1-7.9.1-7.6.1-13.3-2.2-17.1-6.9-2.8-3.3-4.2-11.8-4.3-25.6l-.3-63.6c1.6-.1 3.1-.2 4.6-.4 1.5-.1 2.9-.3 4.1-.5 3.2-.4 7.3-1.1 12.3-2 22.9 32 46 66.9 69.3 104.7l54.1-.3c0-2.3-.1-4.7-.1-7-11.2-1.3-20.2-4.6-27.2-9.9zm178.9-16.8c-4.7 6.9-9.6 11.5-14.7 13.9-5.1 2.4-13.4 3.6-24.9 3.8l-34.4.6c-5.6.1-9.4-.6-11.4-2.1s-3.4-3.5-4.3-6.1c-.8-2.6-1.4-9.9-1.5-21.9-.5-29.9-.9-59.7-1.4-89.6 14.8-1.8 29.5-3.6 44.3-5.4 8.4-1 14.7-.3 18.8 2 4.1 2.4 7.1 5.9 9 10.7 1.5 3.8 3 12.7 4.6 26.7 1.8-.2 3.7-.3 5.5-.5L418 557.9c-1.8.3-3.7.6-5.5.9-.3 16.6-3 28.5-8 35.7-3.8 5.5-11.4 8.9-22.9 10.4-14.8 1.9-29.5 3.9-44.3 5.9-.6-35.8-1.1-71.6-1.7-107.4 18.3-4.3 36.7-8.4 55.1-12.5 10-2.2 17-2.7 20.9-1.4 5 1.9 8.8 5.5 11.4 10.7 2.6 5.2 5.1 15.3 7.5 30.4 1.9-.3 3.9-.7 5.8-1-1.1-21.4-2.2-42.7-3.4-64-51.7 11.6-103.2 24-154.5 37.3 0 2.3.1 4.7.1 7 2.4-.6 4.7-1.2 7.1-1.8 8.3-2.1 14.2-.9 17.8 3.4 2.6 3.3 4.1 13.3 4.3 30.1.9 57.3 1.7 114.7 2.6 172 .2 12.9-.3 21.4-1.3 25.6-1.1 4.2-3.2 7.3-6.4 9.5-4.2 3-8.7 4.6-13.5 4.6-2.4 0-4.8.1-7.2.1 0 2.3.1 4.7.1 7 52.1-.3 104.1-.6 156.2-.8 5.4-24.6 10.8-49.5 16.1-74.8-2 .1-4 .2-6 .4-6.1 18.8-12.1 32.6-18.1 41.7zm38.7-269.1c-.4 23.8-.7 47.5-1.1 71.2l5.7-.9c.4-13.8 2.4-25 5.9-33.8 3.5-8.8 7.8-15.1 12.9-19 3.9-2.9 10.6-5.3 20-7.1 8.1-1.6 16.2-3.1 24.2-4.7A30873683130049200000 30873683130049200000 0 0 0 520.3 751c-2.4 0-4.8 0-7.2.1.1 2.8.1 5.6.2 8.5 28.6-.1 57.3-.3 85.9-.4-.1-3-.1-5.9-.2-8.9-2.3 0-4.7 0-7 .1-7.9.1-13.8-3.2-17.7-9.8-2.8-4.9-4.4-17.2-4.7-36.9-1.5-81.8-3-163.7-4.6-245.5 9.5-1.8 19-3.5 28.5-5.2 8.3-1.5 15.1-.5 20.3 3.1 5.2 3.6 9.4 9.9 12.7 18.9 2 5.6 3.7 15.2 5 28.8 1.9-.3 3.8-.5 5.7-.8-1.2-26-2.5-52.1-3.7-78-54.9 9.9-109.8 20.9-164.6 32.8zm360.4 275.4c-7-7.8-15.5-23.6-25.5-47.1-14.5-34.1-29.1-67.6-43.6-100.4 16.9-8 29.3-20.4 37.2-37.5 7.9-17 11.6-36.8 11.2-59.1-.4-20.8-4.2-38.4-11.6-52.4-7.4-14-16.3-23-26.6-26.9-10.3-4-26.3-4.2-47.8-.6-24.6 4.1-49.2 8.4-73.8 12.8.1 3.1.1 6.1.2 9.2 2.5-.4 5.1-.9 7.6-1.3 7.7-1.3 13.5 1.3 17.5 8.1 2.9 4.7 4.5 17.9 4.9 39.4 1.3 73.6 2.7 147.3 4 220.9.4 19.5-.5 31.9-2.5 37.1-3.5 9.5-9.6 14.2-18.1 14.3-2.5 0-5.1 0-7.6.1.1 3.1.1 6.1.2 9.2l86.8-.3c-.1-3.2-.1-6.4-.2-9.6-2.6 0-5.3 0-7.9.1-7.6.1-13.3-3.7-17.2-11.1-2.9-5.3-4.5-18.8-4.9-40.6-.6-33.6-1.2-67.2-1.8-100.7h4.6c1.5 0 2.9-.1 4.2-.2 3.2-.3 7.3-.8 12.4-1.5 23.8 52.8 47.7 107.3 71.5 163.5 18-.1 36.1-.1 54.1-.2-.1-3.4-.1-6.7-.2-10.1-11.1-2.3-20.1-7.3-27.1-15.1zm200.5-316.8c-11.2-20.6-23.4-34.7-36.6-42.7-10.4-6.2-21.3-8.5-33-7.1-7.9 1-15.4 3.4-22.5 7.1-17.1 9-32.2 26-45.4 50.5-21.4 40.2-31.6 89-30.7 147.7.9 57.4 11.2 103.6 30.8 139.8 19.6 36.2 43.3 54.8 71.2 54.8 27.6 0 50.8-19.2 69.8-58.7 18.9-39.4 28.1-89.4 27.3-149.1-.7-57.9-11-105.7-30.9-142.3zm167.8-110.5c148.5-27 165-118.5 361.5-118.5s213 91.5 361.5 118.5 168-34.5 168-34.5c-150-6-334.5-228-432-228s-90 97.5-97.5 97.5 0-97.5-97.5-97.5-282 222-432 228c0 0 19.5 61.5 168 34.5zM1600 .3zm-385.4 550c12-8.2 21.1-20.5 27.2-36.9 6.1-16.4 9-34.8 8.9-55.3-.2-23.9-4.3-44.8-12.4-62.7-3.9-8.6-8.6-15.8-14.1-21.7-6-6.4-12.9-11.1-20.8-14.3-10-4.1-23.2-5.5-39.7-4.2-29.5 2.3-58.9 4.9-88.3 7.7 0 3.6.1 7.2.1 10.7h14.5c4.4 1.5 8 5 10.8 10.6 3 6.2 4.6 21.6 4.9 46.2 1 85.5 2 171.1 2.9 256.6.3 22.3-.7 36.8-2.9 43.7-3.6 10.6-9.6 15.9-18.1 15.9h-7.6c0 3.6.1 7.2.1 10.8 31.9-.1 63.8-.1 95.7-.2 22.8 0 39.8-4.3 50.8-12.8s19.7-22.1 25.9-40.7c6.2-18.6 9.3-38.1 9.1-58.4-.2-26.7-5.2-49.2-15.1-67.4-7.1-12.9-17.7-22.2-31.9-27.6zM1559.5 0zm875.7 597.4c-6.8-9.9-19.5-24.3-38.1-43.9-22.9-23.9-37.3-43.2-43.2-57.2-4.1-9.5-6.1-19.8-5.9-30.8.2-14.4 3.9-26.8 10.8-37.1 7-10.3 15.7-14.6 26-13 9.2 1.4 18 6.9 26.4 16.3 8.4 9.4 14.8 21.3 19.2 35.7 4.4 14.4 7.3 33.1 8.7 56.4 1.8.2 3.7.4 5.5.6.7-39.9 1.4-79.8 2.2-119.7-1.8-.3-3.7-.6-5.5-1-1.1 7.8-2.6 13-4.2 15.3-1.7 2.4-3.8 3.4-6.4 2.9-2.3-.4-6.2-3.1-11.7-8.4-11.9-11.1-23.2-17.6-34-19.3-17.3-2.8-31.7 4.3-43.2 21.5-11.5 17.2-17.5 39.1-17.9 65.3-.2 15.1 1.4 29.1 5 42 3.6 12.9 9 24.8 16.1 35.7 7.2 10.9 19.3 25.7 36.3 44 17.1 18.3 27.5 29.9 31.3 35.3 5.6 7.9 9.8 16.3 12.3 25.2 2.6 8.9 3.8 17.6 3.6 26.1-.3 15.4-4.1 28.6-11.6 39.9-7.4 11.2-17.4 16.9-29.8 16.8-10.8-.1-20.6-4.4-29.5-13-8.9-8.6-15.4-19.4-19.6-32.5-4.2-13-7.3-32.6-9.5-58.9-1.8-.1-3.7-.2-5.5-.3l-2.1 125h5.5c.8-8.4 2-13.9 3.5-16.6 1.5-2.7 3.5-4 6-4 2.6 0 8.7 2.9 18.3 8.5 9.6 5.6 16 8.8 19 9.7 5.2 1.6 10.7 2.4 16.6 2.4 18.7 0 34.2-9.7 46.5-28.5 12.2-18.8 18.6-41 19.1-67.1.2-13.7-1.4-26.9-4.9-39.7-3.4-12.4-8.5-23.8-15.3-33.6zm372.6-116.3c-26.2-6.6-48.9 0-68.3 21.3-22.3 24.4-33.9 61.4-34.7 108.4-.8 46 8 84.4 26.4 113.3 18.5 29 41.7 42.5 69.6 42.5 27.6 0 51.3-13.6 71.1-38.6 19.7-25 29.8-55.3 30.3-93.1.5-36.7-8.7-68.9-27.4-98.5-18.7-29.6-41-48.8-67-55.3zm-203.6-30.5c2.4.5 4.8.9 7.1 1.4 4.8.9 9.2 3.7 13.4 8.2 3.1 3.4 5.1 7.1 6.1 11.1 1.2 5.3 1.6 15.9 1.4 31.9-.5 29.7-1.1 59.4-1.6 89.1-31.3-3.5-62.6-6.9-94-10.2.6-31.4 1.2-62.9 1.8-94.4.3-16.2 1.1-26.9 2.4-31.9 1.3-5 3.5-8.6 6.6-10.6 4.3-2.9 8.9-3.9 13.7-3 2.4.5 4.9.9 7.3 1.4.1-3 .1-5.9.2-8.9-28.9-5.6-57.7-11-86.7-16.1-.1 3.1-.1 6.2-.2 9.3l7.2 1.2c4.8.8 9.3 3.6 13.6 8.4 3 3.5 5 7.4 5.9 11.7 1.2 5.7 1.6 17 1.3 34.2-1.3 72-2.7 144.1-4 216.1-.4 20.1-1.8 32.7-4.3 38-3.9 8-10.1 12-18.5 12-2.4 0-4.8 0-7.2-.1-.1 3.1-.1 6.2-.2 9.3 28.9.1 57.9.2 86.8.4.1-2.9.1-5.9.2-8.8-2.4 0-4.9 0-7.3-.1-4.8 0-9.3-2-13.5-5.9-3.1-2.9-5.2-6.5-6.1-10.5-1.2-5.4-1.6-16.4-1.3-33.1.6-33.5 1.2-67 1.9-100.4 31.4 2.9 62.7 6 94 9.2l-1.8 94.9c-.3 18.7-1.8 30.4-4.4 35.3-3.9 7.5-10 11.2-18.3 11.1-2.4 0-4.8 0-7.2-.1-.1 2.9-.1 5.8-.2 8.7 28.9.1 57.8.3 86.7.4 0-2.7.1-5.5.1-8.2-2.4 0-4.8-.1-7.2-.1-4.8-.1-9.3-1.9-13.7-5.5-3-2.7-5-6-5.9-9.8-1.2-5-1.7-15.2-1.4-30.7l3.6-197.2c.3-15 1-24.9 2.3-29.5 1.2-4.6 3.4-7.9 6.7-9.6 4.3-2.6 8.9-3.3 13.6-2.3 2.4.5 4.8 1 7.1 1.5 0-2.7.1-5.5.1-8.2-28.7-6.3-57.4-12.4-86.2-18.2.2 2.9.2 5.8.1 8.6zm431.2 103.7c-10.2-6.8-24.2-13-42-18-24.3-6.9-48.6-13.6-73-20.1 0 2.2-.1 4.5-.1 6.7 2.5.7 5 1.3 7.5 2 7.6 2 13.2 6.1 17 12.2 2.6 4.3 3.8 13.9 3.7 28.8l-1.5 153.3c-.1 13.5-1.2 22.1-3.2 25.6-3.7 6.5-9.9 9.7-18.5 9.6-2.5 0-5.1-.1-7.6-.1 0 2.2-.1 4.5-.1 6.7 28.9.2 57.9.3 86.8.5v-6c-2.6 0-5.2-.1-7.8-.1-7.7-.1-13.4-2.6-17.1-7.6-2.8-3.5-4.1-12.6-4-27l.6-66.9c6.4 2.4 12.4 4.4 18.1 5.9 5.6 1.5 10.9 2.6 15.7 3.2 19.8 2.6 35.1-.9 45.9-9.8 10.8-8.9 16.2-21.3 16.2-37.8 0-12.2-3.5-23.5-10.6-34.3-7.1-11-15.7-19.9-26-26.8zm-1187.9-6.8c12.2-7.5 21.4-19.3 27.8-35.3 6.3-16 9.6-34.2 9.8-54.7.2-23.9-3.6-45.3-11.4-64.1-3.1-7.4-6.7-13.9-10.9-19.7-6.5-8.9-14.3-15.8-23.4-20.7-9.9-5.4-23.2-8.4-39.7-9.2-29.5-1.3-59-2.3-88.5-3.1v11.4c2.6.1 5.1.1 7.7.2 7.8.2 13.6 4.9 17.5 14 .8 1.8 1.4 4.3 2 7.4 1.5 8.7 2.3 22.5 2.2 41.5-.4 89.4-.8 178.9-1.1 268.4-.1 23.3-1.3 38.5-3.6 45.6-3.7 11-9.8 16.5-18.3 16.5h-7.6v11.4c31.9 0 63.8 0 95.7.1 22.8 0 39.8-4.3 51-12.8 11.2-8.5 20-22.1 26.6-40.6 6.5-18.5 9.9-37.9 10-58.2.2-26.7-4.5-49.4-14-68.1-7.2-13.6-17.7-23.6-31.8-30zm-370 184.2c-4.7-8.3-9.9-26.4-15.6-54.2-21.1-101.7-42.3-203-63.6-303.7-2.9-13.7-5.8-27.3-8.7-40.9-1.8.1-3.5.1-5.3.2-2.8 13.6-5.6 27.2-8.3 40.7-20.6 100.9-41.1 201.4-61.5 301.2-6 29.8-11.5 49.5-16.5 59.2-2.5 4.9-7.9 8.8-16.4 11.9 0 3.7.1 7.5.1 11.2 21.3 0 42.6-.1 63.8-.1 0-3.8 0-7.5-.1-11.3-9.8-1.4-16.2-4.5-19.1-9.2-3-4.7-4.5-10.3-4.5-16.5 0-7.9 1.6-19.8 4.9-35.9 4.5-21.7 8.9-43.5 13.4-65.3 26.3-.4 52.5-.8 78.8-1 4.2 19.9 8.4 39.8 12.5 59.7 4.1 19.4 6.1 33.6 6.1 42.6 0 6.8-1.4 12.5-4.2 17.2-2.8 4.7-8.3 7.5-16.3 8.3v11.3h80v-11.4c-8.4-1.1-14.8-5.7-19.5-14zm203-3.3c-6.9-9-15-27.3-24.6-54.8-13.9-40-27.8-80-41.8-120 17.1-7.7 29.8-21 38-39.8 8.2-18.8 12.4-41 12.4-66.6.1-24-3.5-44.7-10.7-62.2-1.7-4.1-3.4-7.8-5.3-11.3-6.1-11.4-13-19.7-21-24.8-10.3-6.6-26.4-9.9-48.1-10-24.9 0-49.8.1-74.7.5v11.4c2.6 0 5.1-.1 7.7-.1 7.8-.1 13.6 4.4 17.5 13.4.9 2.1 1.7 5.3 2.3 9.6 1.3 8.7 1.9 21.8 1.9 39.4l.3 269.9c0 23.8-1 38.9-3.1 45.3-3.7 11.5-9.8 17.3-18.4 17.3h-7.6V757h86.9v-11.4h-7.9c-7.6 0-13.3-4.5-17.1-13.6-2.8-6.4-4.2-22.7-4.2-49V561.5c1.6.2 3.2.4 4.7.5 1.5.1 2.9.2 4.2.2 3.2 0 7.4-.2 12.5-.6 23 65.2 45.8 130.4 68.6 195.4h54.1v-11.4c-10.8-2.4-19.8-8.1-26.6-17.2zm383.9-15.4c-4.9 9.1-10 15.2-15.2 18.2-5.2 3.1-13.6 4.6-25 4.5-11.5-.1-22.9-.1-34.4-.2-5.6 0-9.4-1.2-11.3-3.5-2-2.3-3.3-5.4-4.1-9.2-.8-3.9-1.1-14.7-.9-32.5.4-44.3.9-88.5 1.3-132.8 14.9.6 29.8 1.2 44.7 1.9 8.5.4 14.8 2.6 18.8 6.7 4.1 4.1 6.9 9.6 8.7 16.5 1.3 5.5 2.6 18 3.8 37.3 1.8.1 3.7.1 5.5.2.5-45.9 1.1-91.9 1.6-137.8-1.9-.1-3.7-.2-5.6-.4-.9 22.6-4 38.2-9.3 46.9-4 6.6-11.8 9.7-23.4 9.1-14.9-.7-29.8-1.4-44.8-2.1.5-53.1 1.1-106.1 1.6-159.2 18.7 1.4 37.4 2.8 56 4.4 10.1.9 17.2 2.9 21.2 6.2 5 4.5 8.7 10.8 11.2 18.8s4.6 22.5 6.5 43.4c2 .1 3.9.3 5.9.4-.4-25.3-.7-50.7-1.1-76 0-3.5-.1-7-.1-10.5-52.5-5.1-105-9.4-157.5-12.8 0 3.7-.1 7.4-.1 11.1 2.4.2 4.8.3 7.2.5 7.9.5 13.7 4.5 17.3 11.8.2.5.4.9.7 1.4 2.6 6.2 3.7 22.1 3.5 47.7l-2.4 263c-.2 19.7-.9 32.7-2.1 39.1-1.2 6.4-3.4 11.1-6.6 14.3-4.3 4.6-8.9 6.8-13.7 6.8h-7.2c0 3.7-.1 7.4-.1 11.1l156.2.3c6.2-32.9 12.5-65.7 18.7-98.4-2-.1-4-.1-6-.2-6.6 24-13.1 42-19.5 54zm211.9 19.7c-6.8-8.1-14.7-24.5-23.9-49.4-13.4-36.2-26.8-72.8-40.3-110 17.2-6 30-17.2 38.4-33.5 8.4-16.3 12.8-35.8 13.2-58.7.3-21.5-3-40.3-9.9-56.7-6.9-16.4-15.5-28.2-25.6-35.3-10.2-7.1-26.1-12.1-47.7-14.6-2-.2-3.9-.5-5.9-.7-22.8-2.6-45.6-5.2-68.4-7.5 0 2.5-.1 5-.1 7.5v3.2c2.6.3 5.1.5 7.7.8 7.7.8 13.5 5.6 17.3 14.4 2.7 6.2 3.9 21.5 3.6 46l-3.3 250.9c-.3 22.1-1.5 36.2-3.7 42.1-3.8 10.7-10 16-18.6 16h-7.6c0 3.6-.1 7.1-.1 10.7 29 .1 57.9.1 86.9.2.1-3.5.1-6.9.2-10.4h-7.9c-7.6 0-13.2-4.2-16.9-12.6-2.7-5.9-3.9-21-3.6-45.2.5-37.3 1-74.6 1.6-111.9 1.6.3 3.1.5 4.6.7 1.5.2 2.9.3 4.2.4 3.2.2 7.3.2 12.4.1 22.1 61 44.1 120.8 66.1 179.2 18 .1 36.1.1 54.1.2.1-3.3.1-6.7.2-10-11.4-2.7-20.3-7.8-27-15.9z"/><path d="M3118.5 373.8c-456.5-.3-669-347-1466-372.3-2.5-.1-4.9-.2-7.4-.2-2.8-.1-5.7-.2-8.5-.2l-14.7-.3c-1 0-1.9 0-2.9-.1l-18.6-.3h-.4c-13.4-.2-26.9-.3-40.5-.3-13.6 0-27.1.1-40.5.3h-.4l-18.6.3c-1 0-1.9 0-2.9.1l-14.7.3c-2.9.1-5.7.2-8.6.2-2.4.1-4.9.1-7.3.2C669.2 26.7 456.9 373.8 0 373.8v497.8h3118.9l-.4-497.8zM1461.6 43.4c97.5 0 90 97.5 97.5 97.5s0-97.5 97.5-97.5 282 222 432 228c0 0-19.5 61.5-168 34.5s-165-118.5-361.5-118.5-213 91.5-361.5 118.5-168-34.5-168-34.5c150-6 334.5-228 432-228zM224.4 761c-23.3-37.7-46.4-72.7-69.3-104.7-5 .9-9.1 1.6-12.3 2-1.3.2-2.7.3-4.1.5-1.5.1-3 .3-4.6.4l.3 63.6c.1 13.8 1.5 22.3 4.3 25.6 3.8 4.7 9.5 7 17.1 6.9 2.6 0 5.3-.1 7.9-.1v6.2l-86.8.6v-5.5c2.5 0 5.1-.1 7.6-.1 8.6-.1 14.7-3.1 18.3-8.9 2.1-3.3 3.1-10.9 3.1-23-.1-45.4-.3-90.9-.4-136.3 0-13.3-1.4-21.2-4.2-23.6-3.8-3.5-9.5-4.1-17-1.9-2.5.7-5 1.4-7.5 2.2v-5.5c24.1-7.2 48.2-14.3 72.3-21.2 21.1-6 36.7-8.6 46.8-7.6 10.1 1 18.7 5.6 25.8 14 7.1 8.4 10.8 19.9 11 34 .2 15.1-3.7 29-11.6 41.2-7.9 12.3-20.3 21.7-37.2 28.3 14 20.4 28.1 41.8 42.3 64.3 9.7 15.5 18.1 26.2 25 31.4 6.9 5.2 15.9 8.6 27 10 0 2.3.1 4.7.1 7-17.9 0-35.9.1-53.9.2zm213.8-1.2c-52.1.3-104.1.5-156.2.8 0-2.3-.1-4.7-.1-7 2.4 0 4.8-.1 7.2-.1 4.8-.1 9.3-1.6 13.5-4.6 3.2-2.1 5.3-5.3 6.4-9.5 1.1-4.2 1.5-12.7 1.3-25.6-.9-57.3-1.7-114.7-2.6-172-.3-16.8-1.7-26.9-4.3-30.1-3.6-4.3-9.6-5.5-17.8-3.4-2.4.6-4.7 1.2-7.1 1.8 0-2.3-.1-4.7-.1-7 51.4-13.2 102.9-25.6 154.5-37.3 1.1 21.3 2.2 42.6 3.4 64-1.9.3-3.9.7-5.8 1-2.4-15.1-4.8-25.2-7.5-30.4-2.6-5.2-6.4-8.8-11.4-10.7-4-1.3-11-.8-20.9 1.4-18.4 4.1-36.7 8.2-55.1 12.5.6 35.8 1.1 71.6 1.7 107.4 14.8-2 29.5-4 44.3-5.9 11.5-1.5 19.1-4.9 22.9-10.4 5-7.2 7.7-19.1 8-35.7 1.8-.3 3.7-.6 5.5-.9l1.8 101.1c-1.8.2-3.7.3-5.5.5-1.6-14-3.2-22.8-4.6-26.7-1.9-4.8-4.9-8.3-9-10.7-4.1-2.4-10.4-3-18.8-2-14.8 1.8-29.5 3.6-44.3 5.4.5 29.9.9 59.7 1.4 89.6.2 12 .7 19.3 1.5 21.9.8 2.6 2.3 4.6 4.3 6.1s5.8 2.2 11.4 2.1l34.4-.6c11.5-.2 19.7-1.5 24.9-3.8 5.1-2.4 10-7 14.7-13.9 6-9.1 12.1-22.8 18.2-41.5 2-.1 4-.2 6-.4-5.4 25.1-10.8 50-16.2 74.6zm193.5-256.2c-1.4-13.6-3-23.2-5-28.8-3.3-9-7.5-15.3-12.7-18.9-5.2-3.6-12-4.6-20.3-3.1-9.5 1.7-19 3.4-28.5 5.2 1.5 81.8 3 163.7 4.6 245.5.4 19.7 1.9 32 4.7 36.9 3.9 6.6 9.8 9.9 17.7 9.8 2.3 0 4.7 0 7-.1.1 3 .1 5.9.2 8.9-28.6.1-57.3.3-85.9.4-.1-2.8-.1-5.6-.2-8.5 2.4 0 4.8 0 7.2-.1 8.6-.1 14.6-4.1 18-12.3 2.1-5 3-16.4 2.7-34l-4.5-241.2c-8.1 1.5-16.2 3.1-24.2 4.7-9.4 1.8-16.1 4.2-20 7.1-5.1 3.9-9.4 10.2-12.9 19s-5.5 20-5.9 33.8l-5.7.9c.4-23.7.7-47.4 1.1-71.2 54.8-11.9 109.7-22.9 164.8-33.1 1.2 26 2.5 52 3.7 78-2.1.6-4 .8-5.9 1.1zm170.8 254.7c-23.8-56.2-47.7-110.7-71.5-163.5-5.1.8-9.2 1.2-12.4 1.5-1.3.1-2.7.2-4.2.2h-4.6c.6 33.6 1.2 67.2 1.8 100.7.4 21.8 2 35.3 4.9 40.6 3.9 7.5 9.7 11.2 17.2 11.1 2.6 0 5.3 0 7.9-.1.1 3.2.1 6.4.2 9.6l-86.8.3c-.1-3.1-.1-6.1-.2-9.2 2.5 0 5.1 0 7.6-.1 8.6-.1 14.6-4.8 18.1-14.3 2-5.2 2.8-17.6 2.5-37.1-1.3-73.6-2.7-147.3-4-220.9-.4-21.5-2-34.7-4.9-39.4-4-6.7-9.9-9.4-17.5-8.1-2.5.4-5.1.9-7.6 1.3-.1-3.1-.1-6.1-.2-9.2 24.6-4.4 49.2-8.7 73.8-12.8 21.5-3.6 37.5-3.4 47.8.6 10.3 4 19.2 12.9 26.6 26.9 7.4 14 11.3 31.6 11.6 52.4.4 22.3-3.4 42-11.2 59.1-7.9 17.1-20.3 29.5-37.2 37.5 14.6 32.8 29.1 66.3 43.6 100.4 10 23.5 18.5 39.3 25.5 47.1 7 7.8 16.1 12.8 27.2 14.9.1 3.4.1 6.7.2 10.1-18.2.3-36.2.4-54.2.4zm230.9-50.4c-18.9 39.4-42.2 58.7-69.8 58.7-27.9 0-51.6-18.6-71.2-54.8-19.6-36.2-29.8-82.4-30.8-139.8-.9-58.7 9.3-107.5 30.7-147.7 13.1-24.5 28.2-41.5 45.4-50.5 7.2-3.8 14.7-6.2 22.5-7.1 11.6-1.4 22.6.9 33 7.1 13.2 7.9 25.5 22.1 36.6 42.7 19.9 36.6 30.2 84.4 30.9 142.4.8 59.6-8.4 109.6-27.3 149zm219.1-4.1c-6.2 18.6-14.9 32.2-25.9 40.7-11 8.5-28 12.8-50.8 12.8-31.9.1-63.8.1-95.7.2 0-3.6-.1-7.2-.1-10.8h7.6c8.5 0 14.5-5.3 18.1-15.9 2.2-6.8 3.2-21.4 2.9-43.7-1-85.5-2-171.1-2.9-256.6-.3-24.6-1.9-40-4.9-46.2-2.7-5.6-6.3-9.1-10.8-10.6h-14.5c0-3.6-.1-7.2-.1-10.7 29.4-2.8 58.9-5.4 88.3-7.7 16.5-1.3 29.7.1 39.7 4.2 7.9 3.2 14.8 8 20.8 14.3 5.5 5.9 10.2 13.1 14.1 21.7 8.1 17.9 12.2 38.8 12.4 62.7.2 20.5-2.8 38.9-8.9 55.3-6.1 16.4-15.1 28.7-27.2 36.9 14.2 5.5 24.8 14.7 31.9 27.8 9.9 18.2 14.9 40.7 15.1 67.4.2 20.1-2.9 39.6-9.1 58.2zm164.4 53.3v-11.3c8.1-.8 13.5-3.6 16.3-8.3 2.8-4.7 4.2-10.4 4.2-17.2 0-9-2.1-23.2-6.1-42.6-4.2-19.9-8.3-39.8-12.5-59.7-26.3.3-52.5.6-78.8 1-4.5 21.8-8.9 43.5-13.4 65.3-3.3 16-4.9 28-4.9 35.9 0 6.3 1.5 11.8 4.5 16.5 3 4.8 9.3 7.8 19.1 9.2 0 3.8 0 7.5.1 11.3-21.3 0-42.6 0-63.8.1 0-3.7-.1-7.5-.1-11.2 8.5-3 13.9-7 16.4-11.9 5-9.7 10.5-29.4 16.5-59.2 20.3-99.8 40.8-200.2 61.5-301.2 2.8-13.6 5.6-27.1 8.3-40.7 1.8-.1 3.5-.1 5.3-.2 2.9 13.6 5.8 27.3 8.7 40.9 21.4 100.7 42.6 202 63.6 303.7 5.8 27.8 11 45.9 15.6 54.2 4.7 8.3 11.1 13 19.4 14v11.4c-26.5-.1-53.2 0-79.9 0zm290.4 0h-54.1c-22.7-65.1-45.6-130.3-68.6-195.4-5.1.4-9.3.6-12.5.6-1.3 0-2.7 0-4.2-.2-1.5-.1-3.1-.3-4.7-.5v121.5c0 26.3 1.4 42.6 4.2 49 3.8 9 9.5 13.6 17.1 13.6h7.9v11.4h-86.9v-11.4h7.6c8.6 0 14.7-5.8 18.4-17.3 2.1-6.4 3.1-21.5 3.1-45.3l-.3-269.9c0-17.6-.7-30.7-1.9-39.4-.6-4.3-1.4-7.5-2.3-9.6-3.9-9-9.8-13.5-17.5-13.4-2.6 0-5.1.1-7.7.1v-11.4c24.9-.3 49.8-.5 74.7-.5 21.8 0 37.8 3.4 48.1 10 7.9 5 14.9 13.3 21 24.8 1.8 3.5 3.6 7.2 5.3 11.3 7.2 17.4 10.7 38.2 10.7 62.2-.1 25.6-4.2 47.8-12.4 66.6-8.2 18.8-20.9 32.1-38 39.8 14 40 27.9 80 41.8 120 9.5 27.5 17.7 45.8 24.6 54.8 6.9 9 15.8 14.8 26.9 17.2-.3 3.8-.3 7.6-.3 11.4zm175.7-53.4c-6.5 18.5-15.4 32.1-26.6 40.6-11.2 8.5-28.2 12.8-51 12.8-31.9 0-63.8-.1-95.7-.1v-11.4h7.6c8.5 0 14.6-5.5 18.3-16.5 2.3-7.1 3.5-22.4 3.6-45.6.4-89.5.8-178.9 1.1-268.4.1-18.9-.7-32.8-2.2-41.5-.6-3.1-1.2-5.6-2-7.4-3.9-9.1-9.7-13.8-17.5-14-2.6-.1-5.1-.1-7.7-.2v-11.4c29.5.8 59 1.8 88.5 3.1 16.5.7 29.7 3.8 39.7 9.2 9.1 4.9 17 11.8 23.4 20.7 4.2 5.7 7.8 12.3 10.9 19.7 7.8 18.8 11.6 40.2 11.4 64.1-.2 20.5-3.4 38.7-9.8 54.7-6.3 16-15.6 27.7-27.8 35.3 14.1 6.5 24.6 16.4 31.5 29.9 9.6 18.8 14.2 41.5 14 68.1.1 20.4-3.2 39.8-9.7 58.3zm188.4 53.9l-156.2-.3c0-3.7.1-7.4.1-11.1h7.2c4.8 0 9.3-2.3 13.7-6.8 3.2-3.2 5.4-7.9 6.6-14.3 1.2-6.4 1.9-19.4 2.1-39.1l2.4-263c.2-25.7-.9-41.6-3.5-47.7-.2-.5-.4-1-.7-1.4-3.6-7.3-9.4-11.2-17.3-11.8-2.4-.2-4.8-.3-7.2-.5 0-3.7.1-7.4.1-11.1 52.6 3.5 105.1 7.8 157.5 12.8 0 3.5.1 7 .1 10.5.4 25.4.7 50.7 1.1 76-2-.1-3.9-.3-5.9-.4-1.9-20.9-4-35.4-6.5-43.4s-6.2-14.3-11.2-18.8c-4-3.3-11-5.4-21.2-6.2-18.7-1.6-37.4-3-56-4.4-.5 53.1-1.1 106.1-1.6 159.2 14.9.7 29.8 1.3 44.8 2.1 11.6.6 19.4-2.5 23.4-9.1 5.3-8.7 8.4-24.3 9.3-46.9 1.9.1 3.7.2 5.6.4-.5 45.9-1.1 91.9-1.6 137.8-1.8-.1-3.7-.1-5.5-.2-1.2-19.3-2.4-31.8-3.8-37.3-1.7-6.9-4.6-12.4-8.7-16.5s-10.3-6.3-18.8-6.7c-14.9-.7-29.8-1.3-44.7-1.9-.4 44.3-.9 88.5-1.3 132.8-.2 17.8.1 28.7.9 32.5.8 3.9 2.1 7 4.1 9.2 2 2.3 5.7 3.4 11.3 3.5 11.5.1 22.9.1 34.4.2s19.8-1.4 25-4.5c5.2-3.1 10.3-9.2 15.2-18.2 6.3-12 12.9-30 19.7-54 2 .1 4 .1 6 .2-6.5 32.6-12.7 65.4-18.9 98.4zm231.4.6c-18-.1-36.1-.1-54.1-.2-22-58.4-44-118.2-66.1-179.2-5.1.1-9.3 0-12.4-.1-1.3-.1-2.7-.2-4.2-.4s-3-.4-4.6-.7c-.5 37.3-1 74.6-1.6 111.9-.3 24.2.8 39.3 3.6 45.2 3.7 8.4 9.3 12.5 16.9 12.6h7.9c0 3.5-.1 6.9-.2 10.4-29-.1-57.9-.1-86.9-.2 0-3.6.1-7.1.1-10.7h7.6c8.6 0 14.8-5.3 18.6-16 2.2-5.9 3.4-19.9 3.7-42.1l3.3-250.9c.3-24.4-.9-39.8-3.6-46-3.8-8.8-9.6-13.6-17.3-14.4-2.6-.3-5.1-.5-7.7-.8v-3.2c0-2.5.1-5 .1-7.5 22.8 2.3 45.6 4.8 68.4 7.5 2 .2 3.9.4 5.9.7 21.6 2.5 37.6 7.5 47.7 14.6 10.2 7.1 18.7 18.9 25.6 35.3 6.9 16.4 10.2 35.2 9.9 56.7-.4 22.9-4.7 42.4-13.2 58.7-8.4 16.3-21.2 27.5-38.4 33.5 13.4 37.1 26.9 73.8 40.3 110 9.2 24.9 17.2 41.3 23.9 49.4 6.8 8.1 15.6 13.3 26.7 15.5.2 3.7.1 7 .1 10.4zm152.7-87.2c-.5 26-6.8 48.2-19.1 67.1-12.3 18.8-27.7 28.5-46.5 28.5-5.9 0-11.4-.8-16.6-2.4-3.1-.9-9.4-4.1-19-9.7s-15.7-8.5-18.3-8.5c-2.5 0-4.5 1.3-6 4s-2.7 8.2-3.5 16.6h-5.5l2.1-125c1.8.1 3.7.2 5.5.3 2.2 26.2 5.3 45.9 9.5 58.9s10.7 23.9 19.6 32.5c8.9 8.6 18.7 12.9 29.5 13 12.5.1 22.4-5.5 29.8-16.8 7.4-11.2 11.3-24.5 11.6-39.9.2-8.6-1.1-17.3-3.6-26.1-2.6-8.9-6.7-17.3-12.3-25.2-3.8-5.4-14.2-17-31.3-35.3-17.1-18.3-29.2-33.1-36.3-44-7.2-10.9-12.5-22.9-16.1-35.7-3.6-12.9-5.3-26.9-5-42 .4-26.2 6.4-48.1 17.9-65.3 11.5-17.2 25.9-24.3 43.2-21.5 10.8 1.7 22.1 8.3 34 19.3 5.5 5.2 9.4 8 11.7 8.4 2.6.4 4.7-.6 6.4-2.9 1.7-2.4 3.1-7.5 4.2-15.3 1.8.3 3.7.6 5.5 1-.7 39.9-1.4 79.8-2.2 119.7-1.8-.2-3.7-.4-5.5-.6-1.4-23.2-4.3-42-8.7-56.4-4.4-14.4-10.8-26.2-19.2-35.7-8.4-9.4-17.2-14.9-26.4-16.3-10.4-1.6-19.1 2.7-26 13-7 10.3-10.6 22.7-10.8 37.1-.2 11 1.8 21.3 5.9 30.8 6 14 20.4 33.3 43.2 57.2 18.6 19.5 31.3 34 38.1 43.9 6.8 9.9 11.9 21.2 15.4 34 3.4 12.4 5.1 25.6 4.8 39.3zm234.9-202.7c-2.4-.5-4.8-1-7.1-1.5-4.8-1-9.3-.3-13.6 2.3-3.2 1.7-5.4 4.9-6.7 9.6-1.2 4.7-2 14.5-2.3 29.5l-3.6 197.2c-.3 15.5.2 25.7 1.4 30.7.9 3.8 2.9 7 5.9 9.8 4.3 3.7 8.9 5.5 13.7 5.5 2.4 0 4.8 0 7.2.1 0 2.7-.1 5.4-.1 8.2-28.9-.1-57.8-.3-86.7-.4.1-2.9.1-5.8.2-8.7 2.4 0 4.8 0 7.2.1 8.3.1 14.4-3.7 18.3-11.1 2.6-4.9 4-16.6 4.4-35.3l1.8-94.9c-31.3-3.2-62.6-6.3-94-9.2-.6 33.5-1.2 67-1.9 100.4-.3 16.7.1 27.7 1.3 33.1.9 4.1 2.9 7.6 6.1 10.5 4.2 3.9 8.7 5.9 13.5 5.9 2.4 0 4.9 0 7.3.1-.1 2.9-.1 5.9-.2 8.8-28.9-.1-57.9-.2-86.8-.4.1-3.1.1-6.2.2-9.3 2.4 0 4.8 0 7.2.1 8.4.1 14.5-3.9 18.5-12 2.5-5.2 3.9-17.9 4.3-38 1.3-72 2.7-144.1 4-216.1.3-17.1-.1-28.5-1.3-34.2-.9-4.3-2.9-8.2-5.9-11.7-4.3-4.7-8.8-7.5-13.6-8.4l-7.2-1.2c.1-3.1.1-6.2.2-9.3 28.9 5.1 57.8 10.5 86.7 16.1-.1 3-.1 5.9-.2 8.9-2.4-.5-4.9-.9-7.3-1.4-4.8-.9-9.3.1-13.7 3-3.1 2-5.3 5.6-6.6 10.6-1.3 5.1-2.1 15.7-2.4 31.9l-1.8 94.4c31.3 3.2 62.7 6.6 94 10.2.5-29.7 1.1-59.4 1.6-89.1.3-15.9-.2-26.5-1.4-31.9-.9-4-2.9-7.7-6.1-11.1-4.2-4.5-8.7-7.3-13.4-8.2-2.4-.5-4.8-.9-7.1-1.4.1-2.9.1-5.8.2-8.7 28.8 5.8 57.5 11.9 86.2 18.2-.3 2.9-.3 5.6-.4 8.3zM2872 728c-19.7 25-43.5 38.6-71.1 38.6-27.9 0-51.1-13.5-69.6-42.5-18.5-28.9-27.3-67.3-26.4-113.3.8-47 12.4-83.9 34.7-108.4 19.3-21.3 42.1-27.9 68.3-21.3 26 6.5 48.3 25.7 67 55.3 18.7 29.6 27.9 61.8 27.4 98.5-.6 37.7-10.6 68-30.3 93.1zm183.7-74.9c-10.8 8.9-26.1 12.4-45.9 9.8-4.8-.6-10.1-1.7-15.7-3.2-5.6-1.5-11.6-3.5-18.1-5.9l-.6 66.9c-.1 14.5 1.2 23.5 4 27 3.7 5 9.4 7.5 17.1 7.6 2.6 0 5.2.1 7.8.1v6c-28.9-.2-57.9-.4-86.8-.5 0-2.2.1-4.5.1-6.7 2.5 0 5.1.1 7.6.1 8.6.1 14.7-3.1 18.5-9.6 2-3.6 3.1-12.1 3.2-25.6l1.5-153.3c.1-14.9-1.1-24.5-3.7-28.8-3.8-6.1-9.4-10.3-17-12.2-2.5-.7-5-1.3-7.5-2 0-2.2.1-4.5.1-6.7 24.4 6.5 48.7 13.2 73 20.1 17.8 5.1 31.8 11.2 42 18 10.2 6.9 18.9 15.8 25.9 26.6 7 10.9 10.6 22.2 10.6 34.3.1 16.7-5.3 29.1-16.1 38z"/><path class="st3" d="M1619 .6l-18.6-.3 18.6.3zm-121.9.1l-14.7.3 14.7-.3zm21.4-.4l-18.6.3 18.6-.3zm41-.3z"/><path class="st4" d="M1559.1 140.9c-7.5 0 0-97.5-97.5-97.5s-282 222-432 228c0 0 19.5 61.5 168 34.5s165-118.5 361.5-118.5 213 91.5 361.5 118.5 168-34.5 168-34.5c-150-6-334.5-228-432-228s-90 97.5-97.5 97.5z"/></svg>